<svg width="22" height="18" viewBox="0 0 22 18" fill="none" xmlns="http://www.w3.org/2000/svg">
<path d="M22 5.85962C21.6317 6.26475 21.2143 6.62078 20.7723 6.9277C18.7221 8.31498 16.6596 9.71453 14.6585 11.1632C13.6272 11.9244 12.3504 12.8574 11.0123 12.8574H11H10.9877C9.64955 12.8574 8.37277 11.9244 7.34152 11.1632C5.3404 9.70225 3.2779 8.31498 1.23996 6.9277C0.785714 6.62078 0.368304 6.26475 0 5.85962V15.6074C0 16.6877 0.883929 17.5717 1.96429 17.5717H20.0357C21.1161 17.5717 22 16.6877 22 15.6074V5.85962ZM22 2.25024C22 1.16989 21.1038 0.285958 20.0357 0.285958H1.96429C0.65067 0.285958 0 1.31721 0 2.52033C0 3.63752 1.23996 5.0248 2.11161 5.61408C4.01451 6.93998 5.94196 8.26587 7.84487 9.60404C8.64286 10.1565 9.9933 11.286 10.9877 11.286H11H11.0123C12.0067 11.286 13.3571 10.1565 14.1551 9.60404C16.058 8.26587 17.9855 6.93998 19.9007 5.61408C20.981 4.8652 22 3.62524 22 2.25024Z" fill="#E2E4E7"/>
</svg>
