<svg width="49" height="49" viewBox="0 0 49 49" fill="none" xmlns="http://www.w3.org/2000/svg">
<path d="M25.5 35L27 34L31.5 44L25.5 47.5V35Z" fill="#03A7FE"/>
<path d="M24 1.44338C24.3094 1.26474 24.6906 1.26474 25 1.44338L44.2176 12.5387C44.527 12.7173 44.7176 13.0474 44.7176 13.4047V35.5953C44.7176 35.9526 44.527 36.2827 44.2176 36.4613L25 47.5566C24.6906 47.7353 24.3094 47.7353 24 47.5566L4.78238 36.4613C4.47298 36.2827 4.28238 35.9526 4.28238 35.5953V13.4047C4.28238 13.0474 4.47298 12.7173 4.78238 12.5387L24 1.44338Z" stroke="#1BDDEE" stroke-width="2"/>
<path d="M14.5 28H30L31 30H16L14.5 28Z" fill="#03A7FE"/>
<path d="M25 8L27 12V17H25V8Z" fill="#03A7FE"/>
<path fill-rule="evenodd" clip-rule="evenodd" d="M43.5 37L30.5 8V17H20V22H10L14.5 28H30L31.5 31L27 34L31.5 44L43.5 37ZM27 20L25 21L23 22H27V20Z" fill="#1BDDEE"/>
</svg>
